<svg xmlns="http://www.w3.org/2000/svg" xmlns:xlink="http://www.w3.org/1999/xlink" width="1080" zoomAndPan="magnify" viewBox="0 0 810 161.999997" height="216" preserveAspectRatio="xMidYMid meet" version="1.0"><defs><g/></defs><g fill="#ff00ff" fill-opacity="1"><g transform="translate(241.065095, 91.880202)"><g><path d="M 15.625 -28.984375 C 16.28125 -28.984375 16.804688 -28.851562 17.203125 -28.59375 C 17.597656 -28.34375 17.894531 -27.941406 18.09375 -27.390625 L 26.703125 -3.328125 L 28.203125 -3.328125 C 28.753906 -3.328125 29.144531 -3.195312 29.375 -2.9375 C 29.613281 -2.6875 29.734375 -2.257812 29.734375 -1.65625 C 29.734375 -1.050781 29.613281 -0.625 29.375 -0.375 C 29.144531 -0.125 28.753906 0 28.203125 0 L 19.5625 0 C 19 0 18.597656 -0.125 18.359375 -0.375 C 18.128906 -0.625 18.015625 -1.050781 18.015625 -1.65625 C 18.015625 -2.257812 18.128906 -2.6875 18.359375 -2.9375 C 18.597656 -3.195312 19 -3.328125 19.5625 -3.328125 L 22.859375 -3.328125 L 20.84375 -9.125 L 9.015625 -9.125 L 6.984375 -3.328125 L 9.9375 -3.328125 C 10.488281 -3.328125 10.878906 -3.195312 11.109375 -2.9375 C 11.347656 -2.6875 11.46875 -2.257812 11.46875 -1.65625 C 11.46875 -1.050781 11.347656 -0.625 11.109375 -0.375 C 10.878906 -0.125 10.488281 0 9.9375 0 L 1.78125 0 C 1.226562 0 0.832031 -0.125 0.59375 -0.375 C 0.363281 -0.625 0.25 -1.050781 0.25 -1.65625 C 0.25 -2.257812 0.363281 -2.6875 0.59375 -2.9375 C 0.832031 -3.195312 1.226562 -3.328125 1.78125 -3.328125 L 3.15625 -3.328125 L 11.234375 -25.65625 L 6.671875 -25.65625 C 6.109375 -25.65625 5.707031 -25.78125 5.46875 -26.03125 C 5.238281 -26.289062 5.125 -26.71875 5.125 -27.3125 C 5.125 -27.914062 5.238281 -28.34375 5.46875 -28.59375 C 5.707031 -28.851562 6.109375 -28.984375 6.671875 -28.984375 Z M 14.71875 -25.65625 L 10.15625 -12.453125 L 19.734375 -12.453125 L 15.1875 -25.65625 Z M 14.71875 -25.65625 "/></g></g></g><g fill="#ff00ff" fill-opacity="1"><g transform="translate(271.040877, 91.880202)"><g><path d="M 28.6875 -22.5625 C 29.238281 -22.5625 29.628906 -22.429688 29.859375 -22.171875 C 30.097656 -21.921875 30.21875 -21.5 30.21875 -20.90625 C 30.21875 -20.300781 30.097656 -19.867188 29.859375 -19.609375 C 29.628906 -19.359375 29.238281 -19.234375 28.6875 -19.234375 L 28.09375 -19.234375 L 23.296875 -1.046875 C 23.128906 -0.460938 22.882812 -0.0546875 22.5625 0.171875 C 22.25 0.410156 21.785156 0.53125 21.171875 0.53125 C 20.472656 0.53125 19.921875 0.40625 19.515625 0.15625 C 19.117188 -0.09375 18.820312 -0.492188 18.625 -1.046875 L 14.890625 -11.640625 L 11.109375 -1.046875 C 10.910156 -0.492188 10.601562 -0.09375 10.1875 0.15625 C 9.78125 0.40625 9.222656 0.53125 8.515625 0.53125 C 7.898438 0.53125 7.4375 0.410156 7.125 0.171875 C 6.820312 -0.0546875 6.597656 -0.460938 6.453125 -1.046875 L 1.734375 -19.234375 L 1.296875 -19.234375 C 0.742188 -19.234375 0.347656 -19.359375 0.109375 -19.609375 C -0.128906 -19.867188 -0.25 -20.300781 -0.25 -20.90625 C -0.25 -21.5 -0.128906 -21.921875 0.109375 -22.171875 C 0.347656 -22.429688 0.742188 -22.5625 1.296875 -22.5625 L 8.46875 -22.5625 C 9.019531 -22.5625 9.414062 -22.429688 9.65625 -22.171875 C 9.894531 -21.921875 10.015625 -21.5 10.015625 -20.90625 C 10.015625 -20.300781 9.894531 -19.867188 9.65625 -19.609375 C 9.414062 -19.359375 9.019531 -19.234375 8.46875 -19.234375 L 5.46875 -19.234375 L 8.984375 -5.03125 L 13.0625 -16.359375 C 13.175781 -16.703125 13.382812 -16.976562 13.6875 -17.1875 C 14 -17.394531 14.410156 -17.5 14.921875 -17.5 C 15.941406 -17.5 16.566406 -17.175781 16.796875 -16.53125 L 20.84375 -5.03125 L 24.46875 -19.234375 L 22 -19.234375 C 21.445312 -19.234375 21.050781 -19.359375 20.8125 -19.609375 C 20.570312 -19.867188 20.453125 -20.300781 20.453125 -20.90625 C 20.453125 -21.5 20.570312 -21.921875 20.8125 -22.171875 C 21.050781 -22.429688 21.445312 -22.5625 22 -22.5625 Z M 28.6875 -22.5625 "/></g></g></g><g fill="#ff00ff" fill-opacity="1"><g transform="translate(301.01666, 91.880202)"><g><path d="M 15.09375 -23.09375 C 18.144531 -23.09375 20.4375 -22.410156 21.96875 -21.046875 C 23.5 -19.679688 24.265625 -17.65625 24.265625 -14.96875 L 24.265625 -5.25 C 24.265625 -3.96875 24.800781 -3.328125 25.875 -3.328125 L 26.734375 -3.328125 C 27.285156 -3.328125 27.675781 -3.195312 27.90625 -2.9375 C 28.144531 -2.6875 28.265625 -2.257812 28.265625 -1.65625 C 28.265625 -1.050781 28.144531 -0.625 27.90625 -0.375 C 27.675781 -0.125 27.285156 0 26.734375 0 L 25.171875 0 C 24.109375 0 23.195312 -0.265625 22.4375 -0.796875 C 21.6875 -1.328125 21.195312 -2.101562 20.96875 -3.125 C 19.632812 -1.957031 18.191406 -1.054688 16.640625 -0.421875 C 15.085938 0.210938 13.4375 0.53125 11.6875 0.53125 C 10.050781 0.53125 8.597656 0.253906 7.328125 -0.296875 C 6.066406 -0.859375 5.078125 -1.675781 4.359375 -2.75 C 3.648438 -3.832031 3.296875 -5.113281 3.296875 -6.59375 C 3.296875 -9.164062 4.210938 -11.066406 6.046875 -12.296875 C 7.890625 -13.523438 10.269531 -14.140625 13.1875 -14.140625 C 15.769531 -14.140625 18.242188 -13.722656 20.609375 -12.890625 L 20.609375 -14.96875 C 20.609375 -16.539062 20.160156 -17.695312 19.265625 -18.4375 C 18.378906 -19.1875 16.953125 -19.5625 14.984375 -19.5625 C 13.765625 -19.5625 12.492188 -19.390625 11.171875 -19.046875 C 9.859375 -18.703125 8.609375 -18.226562 7.421875 -17.625 C 7.140625 -17.476562 6.890625 -17.40625 6.671875 -17.40625 C 6.128906 -17.40625 5.679688 -17.796875 5.328125 -18.578125 C 5.140625 -18.972656 5.046875 -19.300781 5.046875 -19.5625 C 5.046875 -20.125 5.347656 -20.5625 5.953125 -20.875 C 7.328125 -21.59375 8.796875 -22.140625 10.359375 -22.515625 C 11.929688 -22.898438 13.507812 -23.09375 15.09375 -23.09375 Z M 13.203125 -10.6875 C 11.335938 -10.6875 9.863281 -10.363281 8.78125 -9.71875 C 7.695312 -9.082031 7.15625 -8.066406 7.15625 -6.671875 C 7.15625 -5.484375 7.566406 -4.554688 8.390625 -3.890625 C 9.210938 -3.234375 10.363281 -2.90625 11.84375 -2.90625 C 15.082031 -2.90625 18.003906 -4.25 20.609375 -6.9375 L 20.609375 -9.59375 C 19.503906 -9.945312 18.316406 -10.21875 17.046875 -10.40625 C 15.773438 -10.59375 14.492188 -10.6875 13.203125 -10.6875 Z M 13.203125 -10.6875 "/></g></g></g><g fill="#ff00ff" fill-opacity="1"><g transform="translate(330.992442, 91.880202)"><g><path d="M 15.875 -22.5625 C 16.425781 -22.5625 16.816406 -22.429688 17.046875 -22.171875 C 17.285156 -21.921875 17.40625 -21.5 17.40625 -20.90625 L 17.40625 -3.328125 L 25.25 -3.328125 C 25.800781 -3.328125 26.191406 -3.195312 26.421875 -2.9375 C 26.660156 -2.6875 26.78125 -2.257812 26.78125 -1.65625 C 26.78125 -1.050781 26.660156 -0.625 26.421875 -0.375 C 26.191406 -0.125 25.800781 0 25.25 0 L 6.109375 0 C 5.554688 0 5.160156 -0.125 4.921875 -0.375 C 4.679688 -0.625 4.5625 -1.050781 4.5625 -1.65625 C 4.5625 -2.257812 4.679688 -2.6875 4.921875 -2.9375 C 5.160156 -3.195312 5.554688 -3.328125 6.109375 -3.328125 L 13.75 -3.328125 L 13.75 -19.234375 L 7.5625 -19.234375 C 7.007812 -19.234375 6.613281 -19.359375 6.375 -19.609375 C 6.144531 -19.867188 6.03125 -20.300781 6.03125 -20.90625 C 6.03125 -21.5 6.144531 -21.921875 6.375 -22.171875 C 6.613281 -22.429688 7.007812 -22.5625 7.5625 -22.5625 Z M 15.078125 -33.28125 C 15.972656 -33.28125 16.582031 -33.160156 16.90625 -32.921875 C 17.238281 -32.679688 17.40625 -32.269531 17.40625 -31.6875 L 17.40625 -28.515625 C 17.40625 -27.929688 17.238281 -27.519531 16.90625 -27.28125 C 16.582031 -27.039062 15.972656 -26.921875 15.078125 -26.921875 C 14.179688 -26.921875 13.570312 -27.039062 13.25 -27.28125 C 12.925781 -27.519531 12.765625 -27.929688 12.765625 -28.515625 L 12.765625 -31.6875 C 12.765625 -32.269531 12.925781 -32.679688 13.25 -32.921875 C 13.570312 -33.160156 14.179688 -33.28125 15.078125 -33.28125 Z M 15.078125 -33.28125 "/></g></g></g><g fill="#ff00ff" fill-opacity="1"><g transform="translate(360.968224, 91.880202)"><g><path d="M 22.6875 -23.09375 C 23.351562 -23.09375 23.820312 -22.96875 24.09375 -22.71875 C 24.375 -22.476562 24.515625 -22.078125 24.515625 -21.515625 L 24.515625 -16.875 C 24.515625 -16.300781 24.375 -15.890625 24.09375 -15.640625 C 23.820312 -15.398438 23.351562 -15.28125 22.6875 -15.28125 C 22.125 -15.28125 21.734375 -15.492188 21.515625 -15.921875 C 20.804688 -17.253906 19.785156 -18.191406 18.453125 -18.734375 C 17.117188 -19.285156 15.425781 -19.5625 13.375 -19.5625 C 11.800781 -19.5625 10.566406 -19.28125 9.671875 -18.71875 C 8.785156 -18.15625 8.34375 -17.367188 8.34375 -16.359375 C 8.34375 -15.835938 8.507812 -15.410156 8.84375 -15.078125 C 9.175781 -14.753906 9.671875 -14.488281 10.328125 -14.28125 C 10.867188 -14.101562 11.488281 -13.960938 12.1875 -13.859375 C 12.894531 -13.765625 13.8125 -13.660156 14.9375 -13.546875 C 16.519531 -13.367188 17.796875 -13.203125 18.765625 -13.046875 C 19.734375 -12.890625 20.648438 -12.660156 21.515625 -12.359375 C 22.816406 -11.878906 23.828125 -11.191406 24.546875 -10.296875 C 25.273438 -9.398438 25.640625 -8.222656 25.640625 -6.765625 C 25.640625 -5.296875 25.265625 -4.007812 24.515625 -2.90625 C 23.773438 -1.8125 22.691406 -0.960938 21.265625 -0.359375 C 19.847656 0.234375 18.144531 0.53125 16.15625 0.53125 C 14.40625 0.53125 12.859375 0.289062 11.515625 -0.1875 C 10.179688 -0.675781 9.019531 -1.421875 8.03125 -2.421875 L 8.03125 -1.046875 C 8.03125 -0.484375 7.890625 -0.0820312 7.609375 0.15625 C 7.335938 0.40625 6.867188 0.53125 6.203125 0.53125 C 5.535156 0.53125 5.0625 0.40625 4.78125 0.15625 C 4.507812 -0.0820312 4.375 -0.484375 4.375 -1.046875 L 4.375 -6.90625 C 4.375 -7.476562 4.507812 -7.882812 4.78125 -8.125 C 5.0625 -8.375 5.535156 -8.5 6.203125 -8.5 C 6.546875 -8.5 6.8125 -8.421875 7 -8.265625 C 7.195312 -8.109375 7.367188 -7.851562 7.515625 -7.5 C 8.109375 -5.9375 9.085938 -4.796875 10.453125 -4.078125 C 11.816406 -3.359375 13.640625 -3 15.921875 -3 C 17.804688 -3 19.253906 -3.335938 20.265625 -4.015625 C 21.273438 -4.703125 21.78125 -5.617188 21.78125 -6.765625 C 21.78125 -7.316406 21.597656 -7.769531 21.234375 -8.125 C 20.878906 -8.488281 20.367188 -8.785156 19.703125 -9.015625 C 19.128906 -9.191406 18.472656 -9.335938 17.734375 -9.453125 C 16.992188 -9.578125 16.054688 -9.695312 14.921875 -9.8125 C 13.390625 -9.976562 12.109375 -10.148438 11.078125 -10.328125 C 10.054688 -10.503906 9.113281 -10.765625 8.25 -11.109375 C 7.0625 -11.578125 6.140625 -12.226562 5.484375 -13.0625 C 4.828125 -13.90625 4.5 -15.003906 4.5 -16.359375 C 4.5 -17.773438 4.867188 -18.988281 5.609375 -20 C 6.347656 -21.019531 7.367188 -21.789062 8.671875 -22.3125 C 9.984375 -22.832031 11.472656 -23.09375 13.140625 -23.09375 C 14.710938 -23.09375 16.15625 -22.859375 17.46875 -22.390625 C 18.78125 -21.921875 19.90625 -21.257812 20.84375 -20.40625 L 20.84375 -21.515625 C 20.84375 -22.078125 20.984375 -22.476562 21.265625 -22.71875 C 21.546875 -22.96875 22.019531 -23.09375 22.6875 -23.09375 Z M 22.6875 -23.09375 "/></g></g></g><g fill="#ff00ff" fill-opacity="1"><g transform="translate(390.944006, 91.880202)"><g/></g></g><g fill="#ff00ff" fill-opacity="1"><g transform="translate(420.919788, 91.880202)"><g><path d="M 26.984375 -28.984375 C 27.535156 -28.984375 27.925781 -28.851562 28.15625 -28.59375 C 28.394531 -28.34375 28.515625 -27.914062 28.515625 -27.3125 C 28.515625 -26.71875 28.394531 -26.289062 28.15625 -26.03125 C 27.925781 -25.78125 27.535156 -25.65625 26.984375 -25.65625 L 25.3125 -25.65625 L 16.828125 -12.015625 L 16.828125 -3.328125 L 22.34375 -3.328125 C 22.894531 -3.328125 23.285156 -3.195312 23.515625 -2.9375 C 23.753906 -2.6875 23.875 -2.257812 23.875 -1.65625 C 23.875 -1.050781 23.753906 -0.625 23.515625 -0.375 C 23.285156 -0.125 22.894531 0 22.34375 0 L 7.640625 0 C 7.085938 0 6.691406 -0.125 6.453125 -0.375 C 6.222656 -0.625 6.109375 -1.050781 6.109375 -1.65625 C 6.109375 -2.257812 6.222656 -2.6875 6.453125 -2.9375 C 6.691406 -3.195312 7.085938 -3.328125 7.640625 -3.328125 L 13.15625 -3.328125 L 13.15625 -12.015625 L 4.71875 -25.65625 L 3 -25.65625 C 2.445312 -25.65625 2.050781 -25.78125 1.8125 -26.03125 C 1.582031 -26.289062 1.46875 -26.71875 1.46875 -27.3125 C 1.46875 -27.914062 1.582031 -28.34375 1.8125 -28.59375 C 2.050781 -28.851562 2.445312 -28.984375 3 -28.984375 L 11.15625 -28.984375 C 11.707031 -28.984375 12.101562 -28.851562 12.34375 -28.59375 C 12.582031 -28.34375 12.703125 -27.914062 12.703125 -27.3125 C 12.703125 -26.71875 12.582031 -26.289062 12.34375 -26.03125 C 12.101562 -25.78125 11.707031 -25.65625 11.15625 -25.65625 L 8.890625 -25.65625 L 14.984375 -15.671875 L 21.140625 -25.65625 L 19.5625 -25.65625 C 19 -25.65625 18.597656 -25.78125 18.359375 -26.03125 C 18.128906 -26.289062 18.015625 -26.71875 18.015625 -27.3125 C 18.015625 -27.914062 18.128906 -28.34375 18.359375 -28.59375 C 18.597656 -28.851562 19 -28.984375 19.5625 -28.984375 Z M 26.984375 -28.984375 "/></g></g></g><g fill="#ff00ff" fill-opacity="1"><g transform="translate(450.895571, 91.880202)"><g><path d="M 15.09375 -23.09375 C 18.144531 -23.09375 20.4375 -22.410156 21.96875 -21.046875 C 23.5 -19.679688 24.265625 -17.65625 24.265625 -14.96875 L 24.265625 -5.25 C 24.265625 -3.96875 24.800781 -3.328125 25.875 -3.328125 L 26.734375 -3.328125 C 27.285156 -3.328125 27.675781 -3.195312 27.90625 -2.9375 C 28.144531 -2.6875 28.265625 -2.257812 28.265625 -1.65625 C 28.265625 -1.050781 28.144531 -0.625 27.90625 -0.375 C 27.675781 -0.125 27.285156 0 26.734375 0 L 25.171875 0 C 24.109375 0 23.195312 -0.265625 22.4375 -0.796875 C 21.6875 -1.328125 21.195312 -2.101562 20.96875 -3.125 C 19.632812 -1.957031 18.191406 -1.054688 16.640625 -0.421875 C 15.085938 0.210938 13.4375 0.53125 11.6875 0.53125 C 10.050781 0.53125 8.597656 0.253906 7.328125 -0.296875 C 6.066406 -0.859375 5.078125 -1.675781 4.359375 -2.75 C 3.648438 -3.832031 3.296875 -5.113281 3.296875 -6.59375 C 3.296875 -9.164062 4.210938 -11.066406 6.046875 -12.296875 C 7.890625 -13.523438 10.269531 -14.140625 13.1875 -14.140625 C 15.769531 -14.140625 18.242188 -13.722656 20.609375 -12.890625 L 20.609375 -14.96875 C 20.609375 -16.539062 20.160156 -17.695312 19.265625 -18.4375 C 18.378906 -19.1875 16.953125 -19.5625 14.984375 -19.5625 C 13.765625 -19.5625 12.492188 -19.390625 11.171875 -19.046875 C 9.859375 -18.703125 8.609375 -18.226562 7.421875 -17.625 C 7.140625 -17.476562 6.890625 -17.40625 6.671875 -17.40625 C 6.128906 -17.40625 5.679688 -17.796875 5.328125 -18.578125 C 5.140625 -18.972656 5.046875 -19.300781 5.046875 -19.5625 C 5.046875 -20.125 5.347656 -20.5625 5.953125 -20.875 C 7.328125 -21.59375 8.796875 -22.140625 10.359375 -22.515625 C 11.929688 -22.898438 13.507812 -23.09375 15.09375 -23.09375 Z M 13.203125 -10.6875 C 11.335938 -10.6875 9.863281 -10.363281 8.78125 -9.71875 C 7.695312 -9.082031 7.15625 -8.066406 7.15625 -6.671875 C 7.15625 -5.484375 7.566406 -4.554688 8.390625 -3.890625 C 9.210938 -3.234375 10.363281 -2.90625 11.84375 -2.90625 C 15.082031 -2.90625 18.003906 -4.25 20.609375 -6.9375 L 20.609375 -9.59375 C 19.503906 -9.945312 18.316406 -10.21875 17.046875 -10.40625 C 15.773438 -10.59375 14.492188 -10.6875 13.203125 -10.6875 Z M 13.203125 -10.6875 "/></g></g></g><g fill="#ff00ff" fill-opacity="1"><g transform="translate(480.871353, 91.880202)"><g><path d="M 22.6875 -23.09375 C 23.351562 -23.09375 23.820312 -22.96875 24.09375 -22.71875 C 24.375 -22.476562 24.515625 -22.078125 24.515625 -21.515625 L 24.515625 -16.875 C 24.515625 -16.300781 24.375 -15.890625 24.09375 -15.640625 C 23.820312 -15.398438 23.351562 -15.28125 22.6875 -15.28125 C 22.125 -15.28125 21.734375 -15.492188 21.515625 -15.921875 C 20.804688 -17.253906 19.785156 -18.191406 18.453125 -18.734375 C 17.117188 -19.285156 15.425781 -19.5625 13.375 -19.5625 C 11.800781 -19.5625 10.566406 -19.28125 9.671875 -18.71875 C 8.785156 -18.15625 8.34375 -17.367188 8.34375 -16.359375 C 8.34375 -15.835938 8.507812 -15.410156 8.84375 -15.078125 C 9.175781 -14.753906 9.671875 -14.488281 10.328125 -14.28125 C 10.867188 -14.101562 11.488281 -13.960938 12.1875 -13.859375 C 12.894531 -13.765625 13.8125 -13.660156 14.9375 -13.546875 C 16.519531 -13.367188 17.796875 -13.203125 18.765625 -13.046875 C 19.734375 -12.890625 20.648438 -12.660156 21.515625 -12.359375 C 22.816406 -11.878906 23.828125 -11.191406 24.546875 -10.296875 C 25.273438 -9.398438 25.640625 -8.222656 25.640625 -6.765625 C 25.640625 -5.296875 25.265625 -4.007812 24.515625 -2.90625 C 23.773438 -1.8125 22.691406 -0.960938 21.265625 -0.359375 C 19.847656 0.234375 18.144531 0.53125 16.15625 0.53125 C 14.40625 0.53125 12.859375 0.289062 11.515625 -0.1875 C 10.179688 -0.675781 9.019531 -1.421875 8.03125 -2.421875 L 8.03125 -1.046875 C 8.03125 -0.484375 7.890625 -0.0820312 7.609375 0.15625 C 7.335938 0.40625 6.867188 0.53125 6.203125 0.53125 C 5.535156 0.53125 5.0625 0.40625 4.78125 0.15625 C 4.507812 -0.0820312 4.375 -0.484375 4.375 -1.046875 L 4.375 -6.90625 C 4.375 -7.476562 4.507812 -7.882812 4.78125 -8.125 C 5.0625 -8.375 5.535156 -8.5 6.203125 -8.5 C 6.546875 -8.5 6.8125 -8.421875 7 -8.265625 C 7.195312 -8.109375 7.367188 -7.851562 7.515625 -7.5 C 8.109375 -5.9375 9.085938 -4.796875 10.453125 -4.078125 C 11.816406 -3.359375 13.640625 -3 15.921875 -3 C 17.804688 -3 19.253906 -3.335938 20.265625 -4.015625 C 21.273438 -4.703125 21.78125 -5.617188 21.78125 -6.765625 C 21.78125 -7.316406 21.597656 -7.769531 21.234375 -8.125 C 20.878906 -8.488281 20.367188 -8.785156 19.703125 -9.015625 C 19.128906 -9.191406 18.472656 -9.335938 17.734375 -9.453125 C 16.992188 -9.578125 16.054688 -9.695312 14.921875 -9.8125 C 13.390625 -9.976562 12.109375 -10.148438 11.078125 -10.328125 C 10.054688 -10.503906 9.113281 -10.765625 8.25 -11.109375 C 7.0625 -11.578125 6.140625 -12.226562 5.484375 -13.0625 C 4.828125 -13.90625 4.5 -15.003906 4.5 -16.359375 C 4.5 -17.773438 4.867188 -18.988281 5.609375 -20 C 6.347656 -21.019531 7.367188 -21.789062 8.671875 -22.3125 C 9.984375 -22.832031 11.472656 -23.09375 13.140625 -23.09375 C 14.710938 -23.09375 16.15625 -22.859375 17.46875 -22.390625 C 18.78125 -21.921875 19.90625 -21.257812 20.84375 -20.40625 L 20.84375 -21.515625 C 20.84375 -22.078125 20.984375 -22.476562 21.265625 -22.71875 C 21.546875 -22.96875 22.019531 -23.09375 22.6875 -23.09375 Z M 22.6875 -23.09375 "/></g></g></g><g fill="#ff00ff" fill-opacity="1"><g transform="translate(510.847135, 91.880202)"><g><path d="M 15.875 -22.5625 C 16.425781 -22.5625 16.816406 -22.429688 17.046875 -22.171875 C 17.285156 -21.921875 17.40625 -21.5 17.40625 -20.90625 L 17.40625 -3.328125 L 25.25 -3.328125 C 25.800781 -3.328125 26.191406 -3.195312 26.421875 -2.9375 C 26.660156 -2.6875 26.78125 -2.257812 26.78125 -1.65625 C 26.78125 -1.050781 26.660156 -0.625 26.421875 -0.375 C 26.191406 -0.125 25.800781 0 25.25 0 L 6.109375 0 C 5.554688 0 5.160156 -0.125 4.921875 -0.375 C 4.679688 -0.625 4.5625 -1.050781 4.5625 -1.65625 C 4.5625 -2.257812 4.679688 -2.6875 4.921875 -2.9375 C 5.160156 -3.195312 5.554688 -3.328125 6.109375 -3.328125 L 13.75 -3.328125 L 13.75 -19.234375 L 7.5625 -19.234375 C 7.007812 -19.234375 6.613281 -19.359375 6.375 -19.609375 C 6.144531 -19.867188 6.03125 -20.300781 6.03125 -20.90625 C 6.03125 -21.5 6.144531 -21.921875 6.375 -22.171875 C 6.613281 -22.429688 7.007812 -22.5625 7.5625 -22.5625 Z M 15.078125 -33.28125 C 15.972656 -33.28125 16.582031 -33.160156 16.90625 -32.921875 C 17.238281 -32.679688 17.40625 -32.269531 17.40625 -31.6875 L 17.40625 -28.515625 C 17.40625 -27.929688 17.238281 -27.519531 16.90625 -27.28125 C 16.582031 -27.039062 15.972656 -26.921875 15.078125 -26.921875 C 14.179688 -26.921875 13.570312 -27.039062 13.25 -27.28125 C 12.925781 -27.519531 12.765625 -27.929688 12.765625 -28.515625 L 12.765625 -31.6875 C 12.765625 -32.269531 12.925781 -32.679688 13.25 -32.921875 C 13.570312 -33.160156 14.179688 -33.28125 15.078125 -33.28125 Z M 15.078125 -33.28125 "/></g></g></g><g fill="#ff00ff" fill-opacity="1"><g transform="translate(540.822917, 91.880202)"><g><path d="M 17.75 -23.09375 C 19.226562 -23.09375 20.515625 -22.769531 21.609375 -22.125 C 22.703125 -21.488281 23.539062 -20.566406 24.125 -19.359375 C 24.707031 -18.148438 25 -16.742188 25 -15.140625 L 25 -3.328125 L 27 -3.328125 C 27.550781 -3.328125 27.945312 -3.195312 28.1875 -2.9375 C 28.425781 -2.6875 28.546875 -2.257812 28.546875 -1.65625 C 28.546875 -1.050781 28.425781 -0.625 28.1875 -0.375 C 27.945312 -0.125 27.550781 0 27 0 L 19.09375 0 C 18.539062 0 18.144531 -0.125 17.90625 -0.375 C 17.664062 -0.625 17.546875 -1.050781 17.546875 -1.65625 C 17.546875 -2.257812 17.664062 -2.6875 17.90625 -2.9375 C 18.144531 -3.195312 18.539062 -3.328125 19.09375 -3.328125 L 21.34375 -3.328125 L 21.34375 -14.765625 C 21.34375 -16.210938 21.007812 -17.359375 20.34375 -18.203125 C 19.675781 -19.054688 18.691406 -19.484375 17.390625 -19.484375 C 16.003906 -19.484375 14.710938 -19.082031 13.515625 -18.28125 C 12.316406 -17.488281 11.359375 -16.390625 10.640625 -14.984375 C 9.929688 -13.585938 9.578125 -12.023438 9.578125 -10.296875 L 9.578125 -3.328125 L 11.8125 -3.328125 C 12.363281 -3.328125 12.757812 -3.195312 13 -2.9375 C 13.238281 -2.6875 13.359375 -2.257812 13.359375 -1.65625 C 13.359375 -1.050781 13.238281 -0.625 13 -0.375 C 12.757812 -0.125 12.363281 0 11.8125 0 L 3.90625 0 C 3.351562 0 2.957031 -0.125 2.71875 -0.375 C 2.488281 -0.625 2.375 -1.050781 2.375 -1.65625 C 2.375 -2.257812 2.488281 -2.6875 2.71875 -2.9375 C 2.957031 -3.195312 3.351562 -3.328125 3.90625 -3.328125 L 5.90625 -3.328125 L 5.90625 -19.234375 L 3.421875 -19.234375 C 2.867188 -19.234375 2.472656 -19.359375 2.234375 -19.609375 C 1.992188 -19.867188 1.875 -20.300781 1.875 -20.90625 C 1.875 -21.5 1.992188 -21.921875 2.234375 -22.171875 C 2.472656 -22.429688 2.867188 -22.5625 3.421875 -22.5625 L 7.78125 -22.5625 C 8.34375 -22.5625 8.738281 -22.429688 8.96875 -22.171875 C 9.207031 -21.921875 9.328125 -21.5 9.328125 -20.90625 L 9.328125 -17.96875 C 10.398438 -19.625 11.65625 -20.890625 13.09375 -21.765625 C 14.539062 -22.648438 16.09375 -23.09375 17.75 -23.09375 Z M 17.75 -23.09375 "/></g></g></g><g fill="#00ffff" fill-opacity="1"><g transform="translate(239.190095, 91.880202)"><g><path d="M 15.625 -28.984375 C 16.28125 -28.984375 16.804688 -28.851562 17.203125 -28.59375 C 17.597656 -28.34375 17.894531 -27.941406 18.09375 -27.390625 L 26.703125 -3.328125 L 28.203125 -3.328125 C 28.753906 -3.328125 29.144531 -3.195312 29.375 -2.9375 C 29.613281 -2.6875 29.734375 -2.257812 29.734375 -1.65625 C 29.734375 -1.050781 29.613281 -0.625 29.375 -0.375 C 29.144531 -0.125 28.753906 0 28.203125 0 L 19.5625 0 C 19 0 18.597656 -0.125 18.359375 -0.375 C 18.128906 -0.625 18.015625 -1.050781 18.015625 -1.65625 C 18.015625 -2.257812 18.128906 -2.6875 18.359375 -2.9375 C 18.597656 -3.195312 19 -3.328125 19.5625 -3.328125 L 22.859375 -3.328125 L 20.84375 -9.125 L 9.015625 -9.125 L 6.984375 -3.328125 L 9.9375 -3.328125 C 10.488281 -3.328125 10.878906 -3.195312 11.109375 -2.9375 C 11.347656 -2.6875 11.46875 -2.257812 11.46875 -1.65625 C 11.46875 -1.050781 11.347656 -0.625 11.109375 -0.375 C 10.878906 -0.125 10.488281 0 9.9375 0 L 1.78125 0 C 1.226562 0 0.832031 -0.125 0.59375 -0.375 C 0.363281 -0.625 0.25 -1.050781 0.25 -1.65625 C 0.25 -2.257812 0.363281 -2.6875 0.59375 -2.9375 C 0.832031 -3.195312 1.226562 -3.328125 1.78125 -3.328125 L 3.15625 -3.328125 L 11.234375 -25.65625 L 6.671875 -25.65625 C 6.109375 -25.65625 5.707031 -25.78125 5.46875 -26.03125 C 5.238281 -26.289062 5.125 -26.71875 5.125 -27.3125 C 5.125 -27.914062 5.238281 -28.34375 5.46875 -28.59375 C 5.707031 -28.851562 6.109375 -28.984375 6.671875 -28.984375 Z M 14.71875 -25.65625 L 10.15625 -12.453125 L 19.734375 -12.453125 L 15.1875 -25.65625 Z M 14.71875 -25.65625 "/></g></g></g><g fill="#00ffff" fill-opacity="1"><g transform="translate(269.165878, 91.880202)"><g><path d="M 28.6875 -22.5625 C 29.238281 -22.5625 29.628906 -22.429688 29.859375 -22.171875 C 30.097656 -21.921875 30.21875 -21.5 30.21875 -20.90625 C 30.21875 -20.300781 30.097656 -19.867188 29.859375 -19.609375 C 29.628906 -19.359375 29.238281 -19.234375 28.6875 -19.234375 L 28.09375 -19.234375 L 23.296875 -1.046875 C 23.128906 -0.460938 22.882812 -0.0546875 22.5625 0.171875 C 22.25 0.410156 21.785156 0.53125 21.171875 0.53125 C 20.472656 0.53125 19.921875 0.40625 19.515625 0.15625 C 19.117188 -0.09375 18.820312 -0.492188 18.625 -1.046875 L 14.890625 -11.640625 L 11.109375 -1.046875 C 10.910156 -0.492188 10.601562 -0.09375 10.1875 0.15625 C 9.78125 0.40625 9.222656 0.53125 8.515625 0.53125 C 7.898438 0.53125 7.4375 0.410156 7.125 0.171875 C 6.820312 -0.0546875 6.597656 -0.460938 6.453125 -1.046875 L 1.734375 -19.234375 L 1.296875 -19.234375 C 0.742188 -19.234375 0.347656 -19.359375 0.109375 -19.609375 C -0.128906 -19.867188 -0.25 -20.300781 -0.25 -20.90625 C -0.25 -21.5 -0.128906 -21.921875 0.109375 -22.171875 C 0.347656 -22.429688 0.742188 -22.5625 1.296875 -22.5625 L 8.46875 -22.5625 C 9.019531 -22.5625 9.414062 -22.429688 9.65625 -22.171875 C 9.894531 -21.921875 10.015625 -21.5 10.015625 -20.90625 C 10.015625 -20.300781 9.894531 -19.867188 9.65625 -19.609375 C 9.414062 -19.359375 9.019531 -19.234375 8.46875 -19.234375 L 5.46875 -19.234375 L 8.984375 -5.03125 L 13.0625 -16.359375 C 13.175781 -16.703125 13.382812 -16.976562 13.6875 -17.1875 C 14 -17.394531 14.410156 -17.5 14.921875 -17.5 C 15.941406 -17.5 16.566406 -17.175781 16.796875 -16.53125 L 20.84375 -5.03125 L 24.46875 -19.234375 L 22 -19.234375 C 21.445312 -19.234375 21.050781 -19.359375 20.8125 -19.609375 C 20.570312 -19.867188 20.453125 -20.300781 20.453125 -20.90625 C 20.453125 -21.5 20.570312 -21.921875 20.8125 -22.171875 C 21.050781 -22.429688 21.445312 -22.5625 22 -22.5625 Z M 28.6875 -22.5625 "/></g></g></g><g fill="#00ffff" fill-opacity="1"><g transform="translate(299.14166, 91.880202)"><g><path d="M 15.09375 -23.09375 C 18.144531 -23.09375 20.4375 -22.410156 21.96875 -21.046875 C 23.5 -19.679688 24.265625 -17.65625 24.265625 -14.96875 L 24.265625 -5.25 C 24.265625 -3.96875 24.800781 -3.328125 25.875 -3.328125 L 26.734375 -3.328125 C 27.285156 -3.328125 27.675781 -3.195312 27.90625 -2.9375 C 28.144531 -2.6875 28.265625 -2.257812 28.265625 -1.65625 C 28.265625 -1.050781 28.144531 -0.625 27.90625 -0.375 C 27.675781 -0.125 27.285156 0 26.734375 0 L 25.171875 0 C 24.109375 0 23.195312 -0.265625 22.4375 -0.796875 C 21.6875 -1.328125 21.195312 -2.101562 20.96875 -3.125 C 19.632812 -1.957031 18.191406 -1.054688 16.640625 -0.421875 C 15.085938 0.210938 13.4375 0.53125 11.6875 0.53125 C 10.050781 0.53125 8.597656 0.253906 7.328125 -0.296875 C 6.066406 -0.859375 5.078125 -1.675781 4.359375 -2.75 C 3.648438 -3.832031 3.296875 -5.113281 3.296875 -6.59375 C 3.296875 -9.164062 4.210938 -11.066406 6.046875 -12.296875 C 7.890625 -13.523438 10.269531 -14.140625 13.1875 -14.140625 C 15.769531 -14.140625 18.242188 -13.722656 20.609375 -12.890625 L 20.609375 -14.96875 C 20.609375 -16.539062 20.160156 -17.695312 19.265625 -18.4375 C 18.378906 -19.1875 16.953125 -19.5625 14.984375 -19.5625 C 13.765625 -19.5625 12.492188 -19.390625 11.171875 -19.046875 C 9.859375 -18.703125 8.609375 -18.226562 7.421875 -17.625 C 7.140625 -17.476562 6.890625 -17.40625 6.671875 -17.40625 C 6.128906 -17.40625 5.679688 -17.796875 5.328125 -18.578125 C 5.140625 -18.972656 5.046875 -19.300781 5.046875 -19.5625 C 5.046875 -20.125 5.347656 -20.5625 5.953125 -20.875 C 7.328125 -21.59375 8.796875 -22.140625 10.359375 -22.515625 C 11.929688 -22.898438 13.507812 -23.09375 15.09375 -23.09375 Z M 13.203125 -10.6875 C 11.335938 -10.6875 9.863281 -10.363281 8.78125 -9.71875 C 7.695312 -9.082031 7.15625 -8.066406 7.15625 -6.671875 C 7.15625 -5.484375 7.566406 -4.554688 8.390625 -3.890625 C 9.210938 -3.234375 10.363281 -2.90625 11.84375 -2.90625 C 15.082031 -2.90625 18.003906 -4.25 20.609375 -6.9375 L 20.609375 -9.59375 C 19.503906 -9.945312 18.316406 -10.21875 17.046875 -10.40625 C 15.773438 -10.59375 14.492188 -10.6875 13.203125 -10.6875 Z M 13.203125 -10.6875 "/></g></g></g><g fill="#00ffff" fill-opacity="1"><g transform="translate(329.117442, 91.880202)"><g><path d="M 15.875 -22.5625 C 16.425781 -22.5625 16.816406 -22.429688 17.046875 -22.171875 C 17.285156 -21.921875 17.40625 -21.5 17.40625 -20.90625 L 17.40625 -3.328125 L 25.25 -3.328125 C 25.800781 -3.328125 26.191406 -3.195312 26.421875 -2.9375 C 26.660156 -2.6875 26.78125 -2.257812 26.78125 -1.65625 C 26.78125 -1.050781 26.660156 -0.625 26.421875 -0.375 C 26.191406 -0.125 25.800781 0 25.25 0 L 6.109375 0 C 5.554688 0 5.160156 -0.125 4.921875 -0.375 C 4.679688 -0.625 4.5625 -1.050781 4.5625 -1.65625 C 4.5625 -2.257812 4.679688 -2.6875 4.921875 -2.9375 C 5.160156 -3.195312 5.554688 -3.328125 6.109375 -3.328125 L 13.75 -3.328125 L 13.75 -19.234375 L 7.5625 -19.234375 C 7.007812 -19.234375 6.613281 -19.359375 6.375 -19.609375 C 6.144531 -19.867188 6.03125 -20.300781 6.03125 -20.90625 C 6.03125 -21.5 6.144531 -21.921875 6.375 -22.171875 C 6.613281 -22.429688 7.007812 -22.5625 7.5625 -22.5625 Z M 15.078125 -33.28125 C 15.972656 -33.28125 16.582031 -33.160156 16.90625 -32.921875 C 17.238281 -32.679688 17.40625 -32.269531 17.40625 -31.6875 L 17.40625 -28.515625 C 17.40625 -27.929688 17.238281 -27.519531 16.90625 -27.28125 C 16.582031 -27.039062 15.972656 -26.921875 15.078125 -26.921875 C 14.179688 -26.921875 13.570312 -27.039062 13.25 -27.28125 C 12.925781 -27.519531 12.765625 -27.929688 12.765625 -28.515625 L 12.765625 -31.6875 C 12.765625 -32.269531 12.925781 -32.679688 13.25 -32.921875 C 13.570312 -33.160156 14.179688 -33.28125 15.078125 -33.28125 Z M 15.078125 -33.28125 "/></g></g></g><g fill="#00ffff" fill-opacity="1"><g transform="translate(359.093224, 91.880202)"><g><path d="M 22.6875 -23.09375 C 23.351562 -23.09375 23.820312 -22.96875 24.09375 -22.71875 C 24.375 -22.476562 24.515625 -22.078125 24.515625 -21.515625 L 24.515625 -16.875 C 24.515625 -16.300781 24.375 -15.890625 24.09375 -15.640625 C 23.820312 -15.398438 23.351562 -15.28125 22.6875 -15.28125 C 22.125 -15.28125 21.734375 -15.492188 21.515625 -15.921875 C 20.804688 -17.253906 19.785156 -18.191406 18.453125 -18.734375 C 17.117188 -19.285156 15.425781 -19.5625 13.375 -19.5625 C 11.800781 -19.5625 10.566406 -19.28125 9.671875 -18.71875 C 8.785156 -18.15625 8.34375 -17.367188 8.34375 -16.359375 C 8.34375 -15.835938 8.507812 -15.410156 8.84375 -15.078125 C 9.175781 -14.753906 9.671875 -14.488281 10.328125 -14.28125 C 10.867188 -14.101562 11.488281 -13.960938 12.1875 -13.859375 C 12.894531 -13.765625 13.8125 -13.660156 14.9375 -13.546875 C 16.519531 -13.367188 17.796875 -13.203125 18.765625 -13.046875 C 19.734375 -12.890625 20.648438 -12.660156 21.515625 -12.359375 C 22.816406 -11.878906 23.828125 -11.191406 24.546875 -10.296875 C 25.273438 -9.398438 25.640625 -8.222656 25.640625 -6.765625 C 25.640625 -5.296875 25.265625 -4.007812 24.515625 -2.90625 C 23.773438 -1.8125 22.691406 -0.960938 21.265625 -0.359375 C 19.847656 0.234375 18.144531 0.53125 16.15625 0.53125 C 14.40625 0.53125 12.859375 0.289062 11.515625 -0.1875 C 10.179688 -0.675781 9.019531 -1.421875 8.03125 -2.421875 L 8.03125 -1.046875 C 8.03125 -0.484375 7.890625 -0.0820312 7.609375 0.15625 C 7.335938 0.40625 6.867188 0.53125 6.203125 0.53125 C 5.535156 0.53125 5.0625 0.40625 4.78125 0.15625 C 4.507812 -0.0820312 4.375 -0.484375 4.375 -1.046875 L 4.375 -6.90625 C 4.375 -7.476562 4.507812 -7.882812 4.78125 -8.125 C 5.0625 -8.375 5.535156 -8.5 6.203125 -8.5 C 6.546875 -8.5 6.8125 -8.421875 7 -8.265625 C 7.195312 -8.109375 7.367188 -7.851562 7.515625 -7.5 C 8.109375 -5.9375 9.085938 -4.796875 10.453125 -4.078125 C 11.816406 -3.359375 13.640625 -3 15.921875 -3 C 17.804688 -3 19.253906 -3.335938 20.265625 -4.015625 C 21.273438 -4.703125 21.78125 -5.617188 21.78125 -6.765625 C 21.78125 -7.316406 21.597656 -7.769531 21.234375 -8.125 C 20.878906 -8.488281 20.367188 -8.785156 19.703125 -9.015625 C 19.128906 -9.191406 18.472656 -9.335938 17.734375 -9.453125 C 16.992188 -9.578125 16.054688 -9.695312 14.921875 -9.8125 C 13.390625 -9.976562 12.109375 -10.148438 11.078125 -10.328125 C 10.054688 -10.503906 9.113281 -10.765625 8.25 -11.109375 C 7.0625 -11.578125 6.140625 -12.226562 5.484375 -13.0625 C 4.828125 -13.90625 4.5 -15.003906 4.5 -16.359375 C 4.5 -17.773438 4.867188 -18.988281 5.609375 -20 C 6.347656 -21.019531 7.367188 -21.789062 8.671875 -22.3125 C 9.984375 -22.832031 11.472656 -23.09375 13.140625 -23.09375 C 14.710938 -23.09375 16.15625 -22.859375 17.46875 -22.390625 C 18.78125 -21.921875 19.90625 -21.257812 20.84375 -20.40625 L 20.84375 -21.515625 C 20.84375 -22.078125 20.984375 -22.476562 21.265625 -22.71875 C 21.546875 -22.96875 22.019531 -23.09375 22.6875 -23.09375 Z M 22.6875 -23.09375 "/></g></g></g><g fill="#00ffff" fill-opacity="1"><g transform="translate(389.069006, 91.880202)"><g/></g></g><g fill="#00ffff" fill-opacity="1"><g transform="translate(419.044789, 91.880202)"><g><path d="M 26.984375 -28.984375 C 27.535156 -28.984375 27.925781 -28.851562 28.15625 -28.59375 C 28.394531 -28.34375 28.515625 -27.914062 28.515625 -27.3125 C 28.515625 -26.71875 28.394531 -26.289062 28.15625 -26.03125 C 27.925781 -25.78125 27.535156 -25.65625 26.984375 -25.65625 L 25.3125 -25.65625 L 16.828125 -12.015625 L 16.828125 -3.328125 L 22.34375 -3.328125 C 22.894531 -3.328125 23.285156 -3.195312 23.515625 -2.9375 C 23.753906 -2.6875 23.875 -2.257812 23.875 -1.65625 C 23.875 -1.050781 23.753906 -0.625 23.515625 -0.375 C 23.285156 -0.125 22.894531 0 22.34375 0 L 7.640625 0 C 7.085938 0 6.691406 -0.125 6.453125 -0.375 C 6.222656 -0.625 6.109375 -1.050781 6.109375 -1.65625 C 6.109375 -2.257812 6.222656 -2.6875 6.453125 -2.9375 C 6.691406 -3.195312 7.085938 -3.328125 7.640625 -3.328125 L 13.15625 -3.328125 L 13.15625 -12.015625 L 4.71875 -25.65625 L 3 -25.65625 C 2.445312 -25.65625 2.050781 -25.78125 1.8125 -26.03125 C 1.582031 -26.289062 1.46875 -26.71875 1.46875 -27.3125 C 1.46875 -27.914062 1.582031 -28.34375 1.8125 -28.59375 C 2.050781 -28.851562 2.445312 -28.984375 3 -28.984375 L 11.15625 -28.984375 C 11.707031 -28.984375 12.101562 -28.851562 12.34375 -28.59375 C 12.582031 -28.34375 12.703125 -27.914062 12.703125 -27.3125 C 12.703125 -26.71875 12.582031 -26.289062 12.34375 -26.03125 C 12.101562 -25.78125 11.707031 -25.65625 11.15625 -25.65625 L 8.890625 -25.65625 L 14.984375 -15.671875 L 21.140625 -25.65625 L 19.5625 -25.65625 C 19 -25.65625 18.597656 -25.78125 18.359375 -26.03125 C 18.128906 -26.289062 18.015625 -26.71875 18.015625 -27.3125 C 18.015625 -27.914062 18.128906 -28.34375 18.359375 -28.59375 C 18.597656 -28.851562 19 -28.984375 19.5625 -28.984375 Z M 26.984375 -28.984375 "/></g></g></g><g fill="#00ffff" fill-opacity="1"><g transform="translate(449.020571, 91.880202)"><g><path d="M 15.09375 -23.09375 C 18.144531 -23.09375 20.4375 -22.410156 21.96875 -21.046875 C 23.5 -19.679688 24.265625 -17.65625 24.265625 -14.96875 L 24.265625 -5.25 C 24.265625 -3.96875 24.800781 -3.328125 25.875 -3.328125 L 26.734375 -3.328125 C 27.285156 -3.328125 27.675781 -3.195312 27.90625 -2.9375 C 28.144531 -2.6875 28.265625 -2.257812 28.265625 -1.65625 C 28.265625 -1.050781 28.144531 -0.625 27.90625 -0.375 C 27.675781 -0.125 27.285156 0 26.734375 0 L 25.171875 0 C 24.109375 0 23.195312 -0.265625 22.4375 -0.796875 C 21.6875 -1.328125 21.195312 -2.101562 20.96875 -3.125 C 19.632812 -1.957031 18.191406 -1.054688 16.640625 -0.421875 C 15.085938 0.210938 13.4375 0.53125 11.6875 0.53125 C 10.050781 0.53125 8.597656 0.253906 7.328125 -0.296875 C 6.066406 -0.859375 5.078125 -1.675781 4.359375 -2.75 C 3.648438 -3.832031 3.296875 -5.113281 3.296875 -6.59375 C 3.296875 -9.164062 4.210938 -11.066406 6.046875 -12.296875 C 7.890625 -13.523438 10.269531 -14.140625 13.1875 -14.140625 C 15.769531 -14.140625 18.242188 -13.722656 20.609375 -12.890625 L 20.609375 -14.96875 C 20.609375 -16.539062 20.160156 -17.695312 19.265625 -18.4375 C 18.378906 -19.1875 16.953125 -19.5625 14.984375 -19.5625 C 13.765625 -19.5625 12.492188 -19.390625 11.171875 -19.046875 C 9.859375 -18.703125 8.609375 -18.226562 7.421875 -17.625 C 7.140625 -17.476562 6.890625 -17.40625 6.671875 -17.40625 C 6.128906 -17.40625 5.679688 -17.796875 5.328125 -18.578125 C 5.140625 -18.972656 5.046875 -19.300781 5.046875 -19.5625 C 5.046875 -20.125 5.347656 -20.5625 5.953125 -20.875 C 7.328125 -21.59375 8.796875 -22.140625 10.359375 -22.515625 C 11.929688 -22.898438 13.507812 -23.09375 15.09375 -23.09375 Z M 13.203125 -10.6875 C 11.335938 -10.6875 9.863281 -10.363281 8.78125 -9.71875 C 7.695312 -9.082031 7.15625 -8.066406 7.15625 -6.671875 C 7.15625 -5.484375 7.566406 -4.554688 8.390625 -3.890625 C 9.210938 -3.234375 10.363281 -2.90625 11.84375 -2.90625 C 15.082031 -2.90625 18.003906 -4.25 20.609375 -6.9375 L 20.609375 -9.59375 C 19.503906 -9.945312 18.316406 -10.21875 17.046875 -10.40625 C 15.773438 -10.59375 14.492188 -10.6875 13.203125 -10.6875 Z M 13.203125 -10.6875 "/></g></g></g><g fill="#00ffff" fill-opacity="1"><g transform="translate(478.996353, 91.880202)"><g><path d="M 22.6875 -23.09375 C 23.351562 -23.09375 23.820312 -22.96875 24.09375 -22.71875 C 24.375 -22.476562 24.515625 -22.078125 24.515625 -21.515625 L 24.515625 -16.875 C 24.515625 -16.300781 24.375 -15.890625 24.09375 -15.640625 C 23.820312 -15.398438 23.351562 -15.28125 22.6875 -15.28125 C 22.125 -15.28125 21.734375 -15.492188 21.515625 -15.921875 C 20.804688 -17.253906 19.785156 -18.191406 18.453125 -18.734375 C 17.117188 -19.285156 15.425781 -19.5625 13.375 -19.5625 C 11.800781 -19.5625 10.566406 -19.28125 9.671875 -18.71875 C 8.785156 -18.15625 8.34375 -17.367188 8.34375 -16.359375 C 8.34375 -15.835938 8.507812 -15.410156 8.84375 -15.078125 C 9.175781 -14.753906 9.671875 -14.488281 10.328125 -14.28125 C 10.867188 -14.101562 11.488281 -13.960938 12.1875 -13.859375 C 12.894531 -13.765625 13.8125 -13.660156 14.9375 -13.546875 C 16.519531 -13.367188 17.796875 -13.203125 18.765625 -13.046875 C 19.734375 -12.890625 20.648438 -12.660156 21.515625 -12.359375 C 22.816406 -11.878906 23.828125 -11.191406 24.546875 -10.296875 C 25.273438 -9.398438 25.640625 -8.222656 25.640625 -6.765625 C 25.640625 -5.296875 25.265625 -4.007812 24.515625 -2.90625 C 23.773438 -1.8125 22.691406 -0.960938 21.265625 -0.359375 C 19.847656 0.234375 18.144531 0.53125 16.15625 0.53125 C 14.40625 0.53125 12.859375 0.289062 11.515625 -0.1875 C 10.179688 -0.675781 9.019531 -1.421875 8.03125 -2.421875 L 8.03125 -1.046875 C 8.03125 -0.484375 7.890625 -0.0820312 7.609375 0.15625 C 7.335938 0.40625 6.867188 0.53125 6.203125 0.53125 C 5.535156 0.53125 5.0625 0.40625 4.78125 0.15625 C 4.507812 -0.0820312 4.375 -0.484375 4.375 -1.046875 L 4.375 -6.90625 C 4.375 -7.476562 4.507812 -7.882812 4.78125 -8.125 C 5.0625 -8.375 5.535156 -8.5 6.203125 -8.5 C 6.546875 -8.5 6.8125 -8.421875 7 -8.265625 C 7.195312 -8.109375 7.367188 -7.851562 7.515625 -7.5 C 8.109375 -5.9375 9.085938 -4.796875 10.453125 -4.078125 C 11.816406 -3.359375 13.640625 -3 15.921875 -3 C 17.804688 -3 19.253906 -3.335938 20.265625 -4.015625 C 21.273438 -4.703125 21.78125 -5.617188 21.78125 -6.765625 C 21.78125 -7.316406 21.597656 -7.769531 21.234375 -8.125 C 20.878906 -8.488281 20.367188 -8.785156 19.703125 -9.015625 C 19.128906 -9.191406 18.472656 -9.335938 17.734375 -9.453125 C 16.992188 -9.578125 16.054688 -9.695312 14.921875 -9.8125 C 13.390625 -9.976562 12.109375 -10.148438 11.078125 -10.328125 C 10.054688 -10.503906 9.113281 -10.765625 8.25 -11.109375 C 7.0625 -11.578125 6.140625 -12.226562 5.484375 -13.0625 C 4.828125 -13.90625 4.5 -15.003906 4.5 -16.359375 C 4.5 -17.773438 4.867188 -18.988281 5.609375 -20 C 6.347656 -21.019531 7.367188 -21.789062 8.671875 -22.3125 C 9.984375 -22.832031 11.472656 -23.09375 13.140625 -23.09375 C 14.710938 -23.09375 16.15625 -22.859375 17.46875 -22.390625 C 18.78125 -21.921875 19.90625 -21.257812 20.84375 -20.40625 L 20.84375 -21.515625 C 20.84375 -22.078125 20.984375 -22.476562 21.265625 -22.71875 C 21.546875 -22.96875 22.019531 -23.09375 22.6875 -23.09375 Z M 22.6875 -23.09375 "/></g></g></g><g fill="#00ffff" fill-opacity="1"><g transform="translate(508.972135, 91.880202)"><g><path d="M 15.875 -22.5625 C 16.425781 -22.5625 16.816406 -22.429688 17.046875 -22.171875 C 17.285156 -21.921875 17.40625 -21.5 17.40625 -20.90625 L 17.40625 -3.328125 L 25.25 -3.328125 C 25.800781 -3.328125 26.191406 -3.195312 26.421875 -2.9375 C 26.660156 -2.6875 26.78125 -2.257812 26.78125 -1.65625 C 26.78125 -1.050781 26.660156 -0.625 26.421875 -0.375 C 26.191406 -0.125 25.800781 0 25.25 0 L 6.109375 0 C 5.554688 0 5.160156 -0.125 4.921875 -0.375 C 4.679688 -0.625 4.5625 -1.050781 4.5625 -1.65625 C 4.5625 -2.257812 4.679688 -2.6875 4.921875 -2.9375 C 5.160156 -3.195312 5.554688 -3.328125 6.109375 -3.328125 L 13.75 -3.328125 L 13.75 -19.234375 L 7.5625 -19.234375 C 7.007812 -19.234375 6.613281 -19.359375 6.375 -19.609375 C 6.144531 -19.867188 6.03125 -20.300781 6.03125 -20.90625 C 6.03125 -21.5 6.144531 -21.921875 6.375 -22.171875 C 6.613281 -22.429688 7.007812 -22.5625 7.5625 -22.5625 Z M 15.078125 -33.28125 C 15.972656 -33.28125 16.582031 -33.160156 16.90625 -32.921875 C 17.238281 -32.679688 17.40625 -32.269531 17.40625 -31.6875 L 17.40625 -28.515625 C 17.40625 -27.929688 17.238281 -27.519531 16.90625 -27.28125 C 16.582031 -27.039062 15.972656 -26.921875 15.078125 -26.921875 C 14.179688 -26.921875 13.570312 -27.039062 13.25 -27.28125 C 12.925781 -27.519531 12.765625 -27.929688 12.765625 -28.515625 L 12.765625 -31.6875 C 12.765625 -32.269531 12.925781 -32.679688 13.25 -32.921875 C 13.570312 -33.160156 14.179688 -33.28125 15.078125 -33.28125 Z M 15.078125 -33.28125 "/></g></g></g><g fill="#00ffff" fill-opacity="1"><g transform="translate(538.947917, 91.880202)"><g><path d="M 17.75 -23.09375 C 19.226562 -23.09375 20.515625 -22.769531 21.609375 -22.125 C 22.703125 -21.488281 23.539062 -20.566406 24.125 -19.359375 C 24.707031 -18.148438 25 -16.742188 25 -15.140625 L 25 -3.328125 L 27 -3.328125 C 27.550781 -3.328125 27.945312 -3.195312 28.1875 -2.9375 C 28.425781 -2.6875 28.546875 -2.257812 28.546875 -1.65625 C 28.546875 -1.050781 28.425781 -0.625 28.1875 -0.375 C 27.945312 -0.125 27.550781 0 27 0 L 19.09375 0 C 18.539062 0 18.144531 -0.125 17.90625 -0.375 C 17.664062 -0.625 17.546875 -1.050781 17.546875 -1.65625 C 17.546875 -2.257812 17.664062 -2.6875 17.90625 -2.9375 C 18.144531 -3.195312 18.539062 -3.328125 19.09375 -3.328125 L 21.34375 -3.328125 L 21.34375 -14.765625 C 21.34375 -16.210938 21.007812 -17.359375 20.34375 -18.203125 C 19.675781 -19.054688 18.691406 -19.484375 17.390625 -19.484375 C 16.003906 -19.484375 14.710938 -19.082031 13.515625 -18.28125 C 12.316406 -17.488281 11.359375 -16.390625 10.640625 -14.984375 C 9.929688 -13.585938 9.578125 -12.023438 9.578125 -10.296875 L 9.578125 -3.328125 L 11.8125 -3.328125 C 12.363281 -3.328125 12.757812 -3.195312 13 -2.9375 C 13.238281 -2.6875 13.359375 -2.257812 13.359375 -1.65625 C 13.359375 -1.050781 13.238281 -0.625 13 -0.375 C 12.757812 -0.125 12.363281 0 11.8125 0 L 3.90625 0 C 3.351562 0 2.957031 -0.125 2.71875 -0.375 C 2.488281 -0.625 2.375 -1.050781 2.375 -1.65625 C 2.375 -2.257812 2.488281 -2.6875 2.71875 -2.9375 C 2.957031 -3.195312 3.351562 -3.328125 3.90625 -3.328125 L 5.90625 -3.328125 L 5.90625 -19.234375 L 3.421875 -19.234375 C 2.867188 -19.234375 2.472656 -19.359375 2.234375 -19.609375 C 1.992188 -19.867188 1.875 -20.300781 1.875 -20.90625 C 1.875 -21.5 1.992188 -21.921875 2.234375 -22.171875 C 2.472656 -22.429688 2.867188 -22.5625 3.421875 -22.5625 L 7.78125 -22.5625 C 8.34375 -22.5625 8.738281 -22.429688 8.96875 -22.171875 C 9.207031 -21.921875 9.328125 -21.5 9.328125 -20.90625 L 9.328125 -17.96875 C 10.398438 -19.625 11.65625 -20.890625 13.09375 -21.765625 C 14.539062 -22.648438 16.09375 -23.09375 17.75 -23.09375 Z M 17.75 -23.09375 "/></g></g></g><g fill="#000000" fill-opacity="1"><g transform="translate(240.127595, 91.880202)"><g><path d="M 15.625 -28.984375 C 16.28125 -28.984375 16.804688 -28.851562 17.203125 -28.59375 C 17.597656 -28.34375 17.894531 -27.941406 18.09375 -27.390625 L 26.703125 -3.328125 L 28.203125 -3.328125 C 28.753906 -3.328125 29.144531 -3.195312 29.375 -2.9375 C 29.613281 -2.6875 29.734375 -2.257812 29.734375 -1.65625 C 29.734375 -1.050781 29.613281 -0.625 29.375 -0.375 C 29.144531 -0.125 28.753906 0 28.203125 0 L 19.5625 0 C 19 0 18.597656 -0.125 18.359375 -0.375 C 18.128906 -0.625 18.015625 -1.050781 18.015625 -1.65625 C 18.015625 -2.257812 18.128906 -2.6875 18.359375 -2.9375 C 18.597656 -3.195312 19 -3.328125 19.5625 -3.328125 L 22.859375 -3.328125 L 20.84375 -9.125 L 9.015625 -9.125 L 6.984375 -3.328125 L 9.9375 -3.328125 C 10.488281 -3.328125 10.878906 -3.195312 11.109375 -2.9375 C 11.347656 -2.6875 11.46875 -2.257812 11.46875 -1.65625 C 11.46875 -1.050781 11.347656 -0.625 11.109375 -0.375 C 10.878906 -0.125 10.488281 0 9.9375 0 L 1.78125 0 C 1.226562 0 0.832031 -0.125 0.59375 -0.375 C 0.363281 -0.625 0.25 -1.050781 0.25 -1.65625 C 0.25 -2.257812 0.363281 -2.6875 0.59375 -2.9375 C 0.832031 -3.195312 1.226562 -3.328125 1.78125 -3.328125 L 3.15625 -3.328125 L 11.234375 -25.65625 L 6.671875 -25.65625 C 6.109375 -25.65625 5.707031 -25.78125 5.46875 -26.03125 C 5.238281 -26.289062 5.125 -26.71875 5.125 -27.3125 C 5.125 -27.914062 5.238281 -28.34375 5.46875 -28.59375 C 5.707031 -28.851562 6.109375 -28.984375 6.671875 -28.984375 Z M 14.71875 -25.65625 L 10.15625 -12.453125 L 19.734375 -12.453125 L 15.1875 -25.65625 Z M 14.71875 -25.65625 "/></g></g></g><g fill="#000000" fill-opacity="1"><g transform="translate(270.103378, 91.880202)"><g><path d="M 28.6875 -22.5625 C 29.238281 -22.5625 29.628906 -22.429688 29.859375 -22.171875 C 30.097656 -21.921875 30.21875 -21.5 30.21875 -20.90625 C 30.21875 -20.300781 30.097656 -19.867188 29.859375 -19.609375 C 29.628906 -19.359375 29.238281 -19.234375 28.6875 -19.234375 L 28.09375 -19.234375 L 23.296875 -1.046875 C 23.128906 -0.460938 22.882812 -0.0546875 22.5625 0.171875 C 22.25 0.410156 21.785156 0.53125 21.171875 0.53125 C 20.472656 0.53125 19.921875 0.40625 19.515625 0.15625 C 19.117188 -0.09375 18.820312 -0.492188 18.625 -1.046875 L 14.890625 -11.640625 L 11.109375 -1.046875 C 10.910156 -0.492188 10.601562 -0.09375 10.1875 0.15625 C 9.78125 0.40625 9.222656 0.53125 8.515625 0.53125 C 7.898438 0.53125 7.4375 0.410156 7.125 0.171875 C 6.820312 -0.0546875 6.597656 -0.460938 6.453125 -1.046875 L 1.734375 -19.234375 L 1.296875 -19.234375 C 0.742188 -19.234375 0.347656 -19.359375 0.109375 -19.609375 C -0.128906 -19.867188 -0.25 -20.300781 -0.25 -20.90625 C -0.25 -21.5 -0.128906 -21.921875 0.109375 -22.171875 C 0.347656 -22.429688 0.742188 -22.5625 1.296875 -22.5625 L 8.46875 -22.5625 C 9.019531 -22.5625 9.414062 -22.429688 9.65625 -22.171875 C 9.894531 -21.921875 10.015625 -21.5 10.015625 -20.90625 C 10.015625 -20.300781 9.894531 -19.867188 9.65625 -19.609375 C 9.414062 -19.359375 9.019531 -19.234375 8.46875 -19.234375 L 5.46875 -19.234375 L 8.984375 -5.03125 L 13.0625 -16.359375 C 13.175781 -16.703125 13.382812 -16.976562 13.6875 -17.1875 C 14 -17.394531 14.410156 -17.5 14.921875 -17.5 C 15.941406 -17.5 16.566406 -17.175781 16.796875 -16.53125 L 20.84375 -5.03125 L 24.46875 -19.234375 L 22 -19.234375 C 21.445312 -19.234375 21.050781 -19.359375 20.8125 -19.609375 C 20.570312 -19.867188 20.453125 -20.300781 20.453125 -20.90625 C 20.453125 -21.5 20.570312 -21.921875 20.8125 -22.171875 C 21.050781 -22.429688 21.445312 -22.5625 22 -22.5625 Z M 28.6875 -22.5625 "/></g></g></g><g fill="#000000" fill-opacity="1"><g transform="translate(300.07916, 91.880202)"><g><path d="M 15.09375 -23.09375 C 18.144531 -23.09375 20.4375 -22.410156 21.96875 -21.046875 C 23.5 -19.679688 24.265625 -17.65625 24.265625 -14.96875 L 24.265625 -5.25 C 24.265625 -3.96875 24.800781 -3.328125 25.875 -3.328125 L 26.734375 -3.328125 C 27.285156 -3.328125 27.675781 -3.195312 27.90625 -2.9375 C 28.144531 -2.6875 28.265625 -2.257812 28.265625 -1.65625 C 28.265625 -1.050781 28.144531 -0.625 27.90625 -0.375 C 27.675781 -0.125 27.285156 0 26.734375 0 L 25.171875 0 C 24.109375 0 23.195312 -0.265625 22.4375 -0.796875 C 21.6875 -1.328125 21.195312 -2.101562 20.96875 -3.125 C 19.632812 -1.957031 18.191406 -1.054688 16.640625 -0.421875 C 15.085938 0.210938 13.4375 0.53125 11.6875 0.53125 C 10.050781 0.53125 8.597656 0.253906 7.328125 -0.296875 C 6.066406 -0.859375 5.078125 -1.675781 4.359375 -2.75 C 3.648438 -3.832031 3.296875 -5.113281 3.296875 -6.59375 C 3.296875 -9.164062 4.210938 -11.066406 6.046875 -12.296875 C 7.890625 -13.523438 10.269531 -14.140625 13.1875 -14.140625 C 15.769531 -14.140625 18.242188 -13.722656 20.609375 -12.890625 L 20.609375 -14.96875 C 20.609375 -16.539062 20.160156 -17.695312 19.265625 -18.4375 C 18.378906 -19.1875 16.953125 -19.5625 14.984375 -19.5625 C 13.765625 -19.5625 12.492188 -19.390625 11.171875 -19.046875 C 9.859375 -18.703125 8.609375 -18.226562 7.421875 -17.625 C 7.140625 -17.476562 6.890625 -17.40625 6.671875 -17.40625 C 6.128906 -17.40625 5.679688 -17.796875 5.328125 -18.578125 C 5.140625 -18.972656 5.046875 -19.300781 5.046875 -19.5625 C 5.046875 -20.125 5.347656 -20.5625 5.953125 -20.875 C 7.328125 -21.59375 8.796875 -22.140625 10.359375 -22.515625 C 11.929688 -22.898438 13.507812 -23.09375 15.09375 -23.09375 Z M 13.203125 -10.6875 C 11.335938 -10.6875 9.863281 -10.363281 8.78125 -9.71875 C 7.695312 -9.082031 7.15625 -8.066406 7.15625 -6.671875 C 7.15625 -5.484375 7.566406 -4.554688 8.390625 -3.890625 C 9.210938 -3.234375 10.363281 -2.90625 11.84375 -2.90625 C 15.082031 -2.90625 18.003906 -4.25 20.609375 -6.9375 L 20.609375 -9.59375 C 19.503906 -9.945312 18.316406 -10.21875 17.046875 -10.40625 C 15.773438 -10.59375 14.492188 -10.6875 13.203125 -10.6875 Z M 13.203125 -10.6875 "/></g></g></g><g fill="#000000" fill-opacity="1"><g transform="translate(330.054942, 91.880202)"><g><path d="M 15.875 -22.5625 C 16.425781 -22.5625 16.816406 -22.429688 17.046875 -22.171875 C 17.285156 -21.921875 17.40625 -21.5 17.40625 -20.90625 L 17.40625 -3.328125 L 25.25 -3.328125 C 25.800781 -3.328125 26.191406 -3.195312 26.421875 -2.9375 C 26.660156 -2.6875 26.78125 -2.257812 26.78125 -1.65625 C 26.78125 -1.050781 26.660156 -0.625 26.421875 -0.375 C 26.191406 -0.125 25.800781 0 25.25 0 L 6.109375 0 C 5.554688 0 5.160156 -0.125 4.921875 -0.375 C 4.679688 -0.625 4.5625 -1.050781 4.5625 -1.65625 C 4.5625 -2.257812 4.679688 -2.6875 4.921875 -2.9375 C 5.160156 -3.195312 5.554688 -3.328125 6.109375 -3.328125 L 13.75 -3.328125 L 13.75 -19.234375 L 7.5625 -19.234375 C 7.007812 -19.234375 6.613281 -19.359375 6.375 -19.609375 C 6.144531 -19.867188 6.03125 -20.300781 6.03125 -20.90625 C 6.03125 -21.5 6.144531 -21.921875 6.375 -22.171875 C 6.613281 -22.429688 7.007812 -22.5625 7.5625 -22.5625 Z M 15.078125 -33.28125 C 15.972656 -33.28125 16.582031 -33.160156 16.90625 -32.921875 C 17.238281 -32.679688 17.40625 -32.269531 17.40625 -31.6875 L 17.40625 -28.515625 C 17.40625 -27.929688 17.238281 -27.519531 16.90625 -27.28125 C 16.582031 -27.039062 15.972656 -26.921875 15.078125 -26.921875 C 14.179688 -26.921875 13.570312 -27.039062 13.25 -27.28125 C 12.925781 -27.519531 12.765625 -27.929688 12.765625 -28.515625 L 12.765625 -31.6875 C 12.765625 -32.269531 12.925781 -32.679688 13.25 -32.921875 C 13.570312 -33.160156 14.179688 -33.28125 15.078125 -33.28125 Z M 15.078125 -33.28125 "/></g></g></g><g fill="#000000" fill-opacity="1"><g transform="translate(360.030724, 91.880202)"><g><path d="M 22.6875 -23.09375 C 23.351562 -23.09375 23.820312 -22.96875 24.09375 -22.71875 C 24.375 -22.476562 24.515625 -22.078125 24.515625 -21.515625 L 24.515625 -16.875 C 24.515625 -16.300781 24.375 -15.890625 24.09375 -15.640625 C 23.820312 -15.398438 23.351562 -15.28125 22.6875 -15.28125 C 22.125 -15.28125 21.734375 -15.492188 21.515625 -15.921875 C 20.804688 -17.253906 19.785156 -18.191406 18.453125 -18.734375 C 17.117188 -19.285156 15.425781 -19.5625 13.375 -19.5625 C 11.800781 -19.5625 10.566406 -19.28125 9.671875 -18.71875 C 8.785156 -18.15625 8.34375 -17.367188 8.34375 -16.359375 C 8.34375 -15.835938 8.507812 -15.410156 8.84375 -15.078125 C 9.175781 -14.753906 9.671875 -14.488281 10.328125 -14.28125 C 10.867188 -14.101562 11.488281 -13.960938 12.1875 -13.859375 C 12.894531 -13.765625 13.8125 -13.660156 14.9375 -13.546875 C 16.519531 -13.367188 17.796875 -13.203125 18.765625 -13.046875 C 19.734375 -12.890625 20.648438 -12.660156 21.515625 -12.359375 C 22.816406 -11.878906 23.828125 -11.191406 24.546875 -10.296875 C 25.273438 -9.398438 25.640625 -8.222656 25.640625 -6.765625 C 25.640625 -5.296875 25.265625 -4.007812 24.515625 -2.90625 C 23.773438 -1.8125 22.691406 -0.960938 21.265625 -0.359375 C 19.847656 0.234375 18.144531 0.53125 16.15625 0.53125 C 14.40625 0.53125 12.859375 0.289062 11.515625 -0.1875 C 10.179688 -0.675781 9.019531 -1.421875 8.03125 -2.421875 L 8.03125 -1.046875 C 8.03125 -0.484375 7.890625 -0.0820312 7.609375 0.15625 C 7.335938 0.40625 6.867188 0.53125 6.203125 0.53125 C 5.535156 0.53125 5.0625 0.40625 4.78125 0.15625 C 4.507812 -0.0820312 4.375 -0.484375 4.375 -1.046875 L 4.375 -6.90625 C 4.375 -7.476562 4.507812 -7.882812 4.78125 -8.125 C 5.0625 -8.375 5.535156 -8.5 6.203125 -8.5 C 6.546875 -8.5 6.8125 -8.421875 7 -8.265625 C 7.195312 -8.109375 7.367188 -7.851562 7.515625 -7.5 C 8.109375 -5.9375 9.085938 -4.796875 10.453125 -4.078125 C 11.816406 -3.359375 13.640625 -3 15.921875 -3 C 17.804688 -3 19.253906 -3.335938 20.265625 -4.015625 C 21.273438 -4.703125 21.78125 -5.617188 21.78125 -6.765625 C 21.78125 -7.316406 21.597656 -7.769531 21.234375 -8.125 C 20.878906 -8.488281 20.367188 -8.785156 19.703125 -9.015625 C 19.128906 -9.191406 18.472656 -9.335938 17.734375 -9.453125 C 16.992188 -9.578125 16.054688 -9.695312 14.921875 -9.8125 C 13.390625 -9.976562 12.109375 -10.148438 11.078125 -10.328125 C 10.054688 -10.503906 9.113281 -10.765625 8.25 -11.109375 C 7.0625 -11.578125 6.140625 -12.226562 5.484375 -13.0625 C 4.828125 -13.90625 4.5 -15.003906 4.5 -16.359375 C 4.5 -17.773438 4.867188 -18.988281 5.609375 -20 C 6.347656 -21.019531 7.367188 -21.789062 8.671875 -22.3125 C 9.984375 -22.832031 11.472656 -23.09375 13.140625 -23.09375 C 14.710938 -23.09375 16.15625 -22.859375 17.46875 -22.390625 C 18.78125 -21.921875 19.90625 -21.257812 20.84375 -20.40625 L 20.84375 -21.515625 C 20.84375 -22.078125 20.984375 -22.476562 21.265625 -22.71875 C 21.546875 -22.96875 22.019531 -23.09375 22.6875 -23.09375 Z M 22.6875 -23.09375 "/></g></g></g><g fill="#000000" fill-opacity="1"><g transform="translate(390.006506, 91.880202)"><g/></g></g><g fill="#000000" fill-opacity="1"><g transform="translate(419.982289, 91.880202)"><g><path d="M 26.984375 -28.984375 C 27.535156 -28.984375 27.925781 -28.851562 28.15625 -28.59375 C 28.394531 -28.34375 28.515625 -27.914062 28.515625 -27.3125 C 28.515625 -26.71875 28.394531 -26.289062 28.15625 -26.03125 C 27.925781 -25.78125 27.535156 -25.65625 26.984375 -25.65625 L 25.3125 -25.65625 L 16.828125 -12.015625 L 16.828125 -3.328125 L 22.34375 -3.328125 C 22.894531 -3.328125 23.285156 -3.195312 23.515625 -2.9375 C 23.753906 -2.6875 23.875 -2.257812 23.875 -1.65625 C 23.875 -1.050781 23.753906 -0.625 23.515625 -0.375 C 23.285156 -0.125 22.894531 0 22.34375 0 L 7.640625 0 C 7.085938 0 6.691406 -0.125 6.453125 -0.375 C 6.222656 -0.625 6.109375 -1.050781 6.109375 -1.65625 C 6.109375 -2.257812 6.222656 -2.6875 6.453125 -2.9375 C 6.691406 -3.195312 7.085938 -3.328125 7.640625 -3.328125 L 13.15625 -3.328125 L 13.15625 -12.015625 L 4.71875 -25.65625 L 3 -25.65625 C 2.445312 -25.65625 2.050781 -25.78125 1.8125 -26.03125 C 1.582031 -26.289062 1.46875 -26.71875 1.46875 -27.3125 C 1.46875 -27.914062 1.582031 -28.34375 1.8125 -28.59375 C 2.050781 -28.851562 2.445312 -28.984375 3 -28.984375 L 11.15625 -28.984375 C 11.707031 -28.984375 12.101562 -28.851562 12.34375 -28.59375 C 12.582031 -28.34375 12.703125 -27.914062 12.703125 -27.3125 C 12.703125 -26.71875 12.582031 -26.289062 12.34375 -26.03125 C 12.101562 -25.78125 11.707031 -25.65625 11.15625 -25.65625 L 8.890625 -25.65625 L 14.984375 -15.671875 L 21.140625 -25.65625 L 19.5625 -25.65625 C 19 -25.65625 18.597656 -25.78125 18.359375 -26.03125 C 18.128906 -26.289062 18.015625 -26.71875 18.015625 -27.3125 C 18.015625 -27.914062 18.128906 -28.34375 18.359375 -28.59375 C 18.597656 -28.851562 19 -28.984375 19.5625 -28.984375 Z M 26.984375 -28.984375 "/></g></g></g><g fill="#000000" fill-opacity="1"><g transform="translate(449.958071, 91.880202)"><g><path d="M 15.09375 -23.09375 C 18.144531 -23.09375 20.4375 -22.410156 21.96875 -21.046875 C 23.5 -19.679688 24.265625 -17.65625 24.265625 -14.96875 L 24.265625 -5.25 C 24.265625 -3.96875 24.800781 -3.328125 25.875 -3.328125 L 26.734375 -3.328125 C 27.285156 -3.328125 27.675781 -3.195312 27.90625 -2.9375 C 28.144531 -2.6875 28.265625 -2.257812 28.265625 -1.65625 C 28.265625 -1.050781 28.144531 -0.625 27.90625 -0.375 C 27.675781 -0.125 27.285156 0 26.734375 0 L 25.171875 0 C 24.109375 0 23.195312 -0.265625 22.4375 -0.796875 C 21.6875 -1.328125 21.195312 -2.101562 20.96875 -3.125 C 19.632812 -1.957031 18.191406 -1.054688 16.640625 -0.421875 C 15.085938 0.210938 13.4375 0.53125 11.6875 0.53125 C 10.050781 0.53125 8.597656 0.253906 7.328125 -0.296875 C 6.066406 -0.859375 5.078125 -1.675781 4.359375 -2.75 C 3.648438 -3.832031 3.296875 -5.113281 3.296875 -6.59375 C 3.296875 -9.164062 4.210938 -11.066406 6.046875 -12.296875 C 7.890625 -13.523438 10.269531 -14.140625 13.1875 -14.140625 C 15.769531 -14.140625 18.242188 -13.722656 20.609375 -12.890625 L 20.609375 -14.96875 C 20.609375 -16.539062 20.160156 -17.695312 19.265625 -18.4375 C 18.378906 -19.1875 16.953125 -19.5625 14.984375 -19.5625 C 13.765625 -19.5625 12.492188 -19.390625 11.171875 -19.046875 C 9.859375 -18.703125 8.609375 -18.226562 7.421875 -17.625 C 7.140625 -17.476562 6.890625 -17.40625 6.671875 -17.40625 C 6.128906 -17.40625 5.679688 -17.796875 5.328125 -18.578125 C 5.140625 -18.972656 5.046875 -19.300781 5.046875 -19.5625 C 5.046875 -20.125 5.347656 -20.5625 5.953125 -20.875 C 7.328125 -21.59375 8.796875 -22.140625 10.359375 -22.515625 C 11.929688 -22.898438 13.507812 -23.09375 15.09375 -23.09375 Z M 13.203125 -10.6875 C 11.335938 -10.6875 9.863281 -10.363281 8.78125 -9.71875 C 7.695312 -9.082031 7.15625 -8.066406 7.15625 -6.671875 C 7.15625 -5.484375 7.566406 -4.554688 8.390625 -3.890625 C 9.210938 -3.234375 10.363281 -2.90625 11.84375 -2.90625 C 15.082031 -2.90625 18.003906 -4.25 20.609375 -6.9375 L 20.609375 -9.59375 C 19.503906 -9.945312 18.316406 -10.21875 17.046875 -10.40625 C 15.773438 -10.59375 14.492188 -10.6875 13.203125 -10.6875 Z M 13.203125 -10.6875 "/></g></g></g><g fill="#000000" fill-opacity="1"><g transform="translate(479.933853, 91.880202)"><g><path d="M 22.6875 -23.09375 C 23.351562 -23.09375 23.820312 -22.96875 24.09375 -22.71875 C 24.375 -22.476562 24.515625 -22.078125 24.515625 -21.515625 L 24.515625 -16.875 C 24.515625 -16.300781 24.375 -15.890625 24.09375 -15.640625 C 23.820312 -15.398438 23.351562 -15.28125 22.6875 -15.28125 C 22.125 -15.28125 21.734375 -15.492188 21.515625 -15.921875 C 20.804688 -17.253906 19.785156 -18.191406 18.453125 -18.734375 C 17.117188 -19.285156 15.425781 -19.5625 13.375 -19.5625 C 11.800781 -19.5625 10.566406 -19.28125 9.671875 -18.71875 C 8.785156 -18.15625 8.34375 -17.367188 8.34375 -16.359375 C 8.34375 -15.835938 8.507812 -15.410156 8.84375 -15.078125 C 9.175781 -14.753906 9.671875 -14.488281 10.328125 -14.28125 C 10.867188 -14.101562 11.488281 -13.960938 12.1875 -13.859375 C 12.894531 -13.765625 13.8125 -13.660156 14.9375 -13.546875 C 16.519531 -13.367188 17.796875 -13.203125 18.765625 -13.046875 C 19.734375 -12.890625 20.648438 -12.660156 21.515625 -12.359375 C 22.816406 -11.878906 23.828125 -11.191406 24.546875 -10.296875 C 25.273438 -9.398438 25.640625 -8.222656 25.640625 -6.765625 C 25.640625 -5.296875 25.265625 -4.007812 24.515625 -2.90625 C 23.773438 -1.8125 22.691406 -0.960938 21.265625 -0.359375 C 19.847656 0.234375 18.144531 0.53125 16.15625 0.53125 C 14.40625 0.53125 12.859375 0.289062 11.515625 -0.1875 C 10.179688 -0.675781 9.019531 -1.421875 8.03125 -2.421875 L 8.03125 -1.046875 C 8.03125 -0.484375 7.890625 -0.0820312 7.609375 0.15625 C 7.335938 0.40625 6.867188 0.53125 6.203125 0.53125 C 5.535156 0.53125 5.0625 0.40625 4.78125 0.15625 C 4.507812 -0.0820312 4.375 -0.484375 4.375 -1.046875 L 4.375 -6.90625 C 4.375 -7.476562 4.507812 -7.882812 4.78125 -8.125 C 5.0625 -8.375 5.535156 -8.5 6.203125 -8.5 C 6.546875 -8.5 6.8125 -8.421875 7 -8.265625 C 7.195312 -8.109375 7.367188 -7.851562 7.515625 -7.5 C 8.109375 -5.9375 9.085938 -4.796875 10.453125 -4.078125 C 11.816406 -3.359375 13.640625 -3 15.921875 -3 C 17.804688 -3 19.253906 -3.335938 20.265625 -4.015625 C 21.273438 -4.703125 21.78125 -5.617188 21.78125 -6.765625 C 21.78125 -7.316406 21.597656 -7.769531 21.234375 -8.125 C 20.878906 -8.488281 20.367188 -8.785156 19.703125 -9.015625 C 19.128906 -9.191406 18.472656 -9.335938 17.734375 -9.453125 C 16.992188 -9.578125 16.054688 -9.695312 14.921875 -9.8125 C 13.390625 -9.976562 12.109375 -10.148438 11.078125 -10.328125 C 10.054688 -10.503906 9.113281 -10.765625 8.25 -11.109375 C 7.0625 -11.578125 6.140625 -12.226562 5.484375 -13.0625 C 4.828125 -13.90625 4.5 -15.003906 4.5 -16.359375 C 4.5 -17.773438 4.867188 -18.988281 5.609375 -20 C 6.347656 -21.019531 7.367188 -21.789062 8.671875 -22.3125 C 9.984375 -22.832031 11.472656 -23.09375 13.140625 -23.09375 C 14.710938 -23.09375 16.15625 -22.859375 17.46875 -22.390625 C 18.78125 -21.921875 19.90625 -21.257812 20.84375 -20.40625 L 20.84375 -21.515625 C 20.84375 -22.078125 20.984375 -22.476562 21.265625 -22.71875 C 21.546875 -22.96875 22.019531 -23.09375 22.6875 -23.09375 Z M 22.6875 -23.09375 "/></g></g></g><g fill="#000000" fill-opacity="1"><g transform="translate(509.909635, 91.880202)"><g><path d="M 15.875 -22.5625 C 16.425781 -22.5625 16.816406 -22.429688 17.046875 -22.171875 C 17.285156 -21.921875 17.40625 -21.5 17.40625 -20.90625 L 17.40625 -3.328125 L 25.25 -3.328125 C 25.800781 -3.328125 26.191406 -3.195312 26.421875 -2.9375 C 26.660156 -2.6875 26.78125 -2.257812 26.78125 -1.65625 C 26.78125 -1.050781 26.660156 -0.625 26.421875 -0.375 C 26.191406 -0.125 25.800781 0 25.25 0 L 6.109375 0 C 5.554688 0 5.160156 -0.125 4.921875 -0.375 C 4.679688 -0.625 4.5625 -1.050781 4.5625 -1.65625 C 4.5625 -2.257812 4.679688 -2.6875 4.921875 -2.9375 C 5.160156 -3.195312 5.554688 -3.328125 6.109375 -3.328125 L 13.75 -3.328125 L 13.75 -19.234375 L 7.5625 -19.234375 C 7.007812 -19.234375 6.613281 -19.359375 6.375 -19.609375 C 6.144531 -19.867188 6.03125 -20.300781 6.03125 -20.90625 C 6.03125 -21.5 6.144531 -21.921875 6.375 -22.171875 C 6.613281 -22.429688 7.007812 -22.5625 7.5625 -22.5625 Z M 15.078125 -33.28125 C 15.972656 -33.28125 16.582031 -33.160156 16.90625 -32.921875 C 17.238281 -32.679688 17.40625 -32.269531 17.40625 -31.6875 L 17.40625 -28.515625 C 17.40625 -27.929688 17.238281 -27.519531 16.90625 -27.28125 C 16.582031 -27.039062 15.972656 -26.921875 15.078125 -26.921875 C 14.179688 -26.921875 13.570312 -27.039062 13.25 -27.28125 C 12.925781 -27.519531 12.765625 -27.929688 12.765625 -28.515625 L 12.765625 -31.6875 C 12.765625 -32.269531 12.925781 -32.679688 13.25 -32.921875 C 13.570312 -33.160156 14.179688 -33.28125 15.078125 -33.28125 Z M 15.078125 -33.28125 "/></g></g></g><g fill="#000000" fill-opacity="1"><g transform="translate(539.885417, 91.880202)"><g><path d="M 17.75 -23.09375 C 19.226562 -23.09375 20.515625 -22.769531 21.609375 -22.125 C 22.703125 -21.488281 23.539062 -20.566406 24.125 -19.359375 C 24.707031 -18.148438 25 -16.742188 25 -15.140625 L 25 -3.328125 L 27 -3.328125 C 27.550781 -3.328125 27.945312 -3.195312 28.1875 -2.9375 C 28.425781 -2.6875 28.546875 -2.257812 28.546875 -1.65625 C 28.546875 -1.050781 28.425781 -0.625 28.1875 -0.375 C 27.945312 -0.125 27.550781 0 27 0 L 19.09375 0 C 18.539062 0 18.144531 -0.125 17.90625 -0.375 C 17.664062 -0.625 17.546875 -1.050781 17.546875 -1.65625 C 17.546875 -2.257812 17.664062 -2.6875 17.90625 -2.9375 C 18.144531 -3.195312 18.539062 -3.328125 19.09375 -3.328125 L 21.34375 -3.328125 L 21.34375 -14.765625 C 21.34375 -16.210938 21.007812 -17.359375 20.34375 -18.203125 C 19.675781 -19.054688 18.691406 -19.484375 17.390625 -19.484375 C 16.003906 -19.484375 14.710938 -19.082031 13.515625 -18.28125 C 12.316406 -17.488281 11.359375 -16.390625 10.640625 -14.984375 C 9.929688 -13.585938 9.578125 -12.023438 9.578125 -10.296875 L 9.578125 -3.328125 L 11.8125 -3.328125 C 12.363281 -3.328125 12.757812 -3.195312 13 -2.9375 C 13.238281 -2.6875 13.359375 -2.257812 13.359375 -1.65625 C 13.359375 -1.050781 13.238281 -0.625 13 -0.375 C 12.757812 -0.125 12.363281 0 11.8125 0 L 3.90625 0 C 3.351562 0 2.957031 -0.125 2.71875 -0.375 C 2.488281 -0.625 2.375 -1.050781 2.375 -1.65625 C 2.375 -2.257812 2.488281 -2.6875 2.71875 -2.9375 C 2.957031 -3.195312 3.351562 -3.328125 3.90625 -3.328125 L 5.90625 -3.328125 L 5.90625 -19.234375 L 3.421875 -19.234375 C 2.867188 -19.234375 2.472656 -19.359375 2.234375 -19.609375 C 1.992188 -19.867188 1.875 -20.300781 1.875 -20.90625 C 1.875 -21.5 1.992188 -21.921875 2.234375 -22.171875 C 2.472656 -22.429688 2.867188 -22.5625 3.421875 -22.5625 L 7.78125 -22.5625 C 8.34375 -22.5625 8.738281 -22.429688 8.96875 -22.171875 C 9.207031 -21.921875 9.328125 -21.5 9.328125 -20.90625 L 9.328125 -17.96875 C 10.398438 -19.625 11.65625 -20.890625 13.09375 -21.765625 C 14.539062 -22.648438 16.09375 -23.09375 17.75 -23.09375 Z M 17.75 -23.09375 "/></g></g></g></svg>